<?xml version="1.0" encoding="UTF-8"?>
<svg version="1.1" xmlns="http://www.w3.org/2000/svg" width="474" height="474">
<path d="M0 0 C0.97415053 -0.00233999 0.97415053 -0.00233999 1.96798086 -0.00472724 C4.15986953 -0.00873891 6.35168982 -0.00554698 8.5435791 -0.00241089 C10.10858704 -0.00376486 11.67359467 -0.00554476 13.23860168 -0.00772095 C17.50087827 -0.01229582 21.76313076 -0.0105055 26.02540779 -0.00734186 C30.47592359 -0.00481854 34.92643725 -0.00715572 39.37695312 -0.00872803 C46.85225802 -0.0105498 54.32755305 -0.0081432 61.80285645 -0.00338745 C70.45804876 0.00205518 79.11321751 0.00029253 87.76840925 -0.00521386 C95.18579546 -0.00974476 102.60317455 -0.01039565 110.0205617 -0.00777519 C114.45667946 -0.00621229 118.89278614 -0.006019 123.3289032 -0.00931168 C127.49847204 -0.01219006 131.66801038 -0.01021531 135.83757591 -0.00441742 C137.37231076 -0.00308964 138.90704815 -0.00348423 140.441782 -0.00568008 C142.52803639 -0.00839091 144.61419148 -0.00501133 146.70043945 0 C147.87073952 0.00037703 149.04103958 0.00075405 150.24680328 0.0011425 C152.85021973 0.12698364 152.85021973 0.12698364 153.85021973 1.12698364 C153.94703794 3.18992642 153.97208895 5.25624407 153.97047424 7.32145691 C153.97175827 8.30041428 153.97175827 8.30041428 153.97306824 9.29914856 C153.97473294 11.50879586 153.96918447 13.71836858 153.96374512 15.92800903 C153.96343901 17.53010016 153.96357188 19.13219143 153.96411037 20.73428249 C153.9643369 25.03957932 153.95852492 29.34484856 153.95149994 33.65013885 C153.9458212 37.68437287 153.9455377 41.71860005 153.94482422 45.75283813 C153.93956885 57.56505698 153.92560781 69.37727066 153.91271973 81.18948364 C153.89209473 107.56885864 153.87146973 133.94823364 153.85021973 161.12698364 C100.72021973 161.12698364 47.59021973 161.12698364 -7.14978027 161.12698364 C-7.17040527 134.74760864 -7.19103027 108.36823364 -7.21228027 81.18948364 C-7.22138428 72.84546265 -7.23048828 64.50144165 -7.23986816 55.90457153 C-7.24438477 45.75283813 -7.24438477 45.75283813 -7.245224 41.00758362 C-7.24615952 37.67762085 -7.24992231 34.34767386 -7.25535583 31.01771545 C-7.26218235 26.77831581 -7.26427751 22.53893931 -7.26285255 18.29953468 C-7.26315079 16.73857236 -7.26515288 15.17760928 -7.2689954 13.61665165 C-7.27392357 11.5182235 -7.27278715 9.41988689 -7.27003479 7.32145691 C-7.27095658 6.14248368 -7.27187838 4.96351046 -7.2728281 3.74881077 C-7.0415739 -1.17861087 -4.32911388 0.00139467 0 0 Z " fill="#272727" transform="translate(92.1497802734375,80.87301635742188)"/>
<path d="M0 0 C17.469375 -0.020625 34.93875 -0.04125 52.9375 -0.0625 C58.46234131 -0.071604 63.98718262 -0.08070801 69.67944336 -0.09008789 C76.40344238 -0.09460449 76.40344238 -0.09460449 79.54689026 -0.09544373 C81.75184836 -0.09698369 83.9568056 -0.10050967 86.16175842 -0.10557556 C89.49318922 -0.11284978 92.82456836 -0.11390753 96.15600586 -0.11352539 C97.64017832 -0.11892255 97.64017832 -0.11892255 99.15433407 -0.12442875 C100.04574376 -0.12305125 100.93715345 -0.12167376 101.85557556 -0.12025452 C102.63633422 -0.12117631 103.41709288 -0.1220981 104.22151089 -0.12304783 C106 0 106 0 107 1 C107.0953919 2.37876025 107.12188622 3.76236916 107.12025452 5.14442444 C107.12232076 6.48153898 107.12232076 6.48153898 107.12442875 7.84566593 C107.11903159 9.3298384 107.11903159 9.3298384 107.11352539 10.84399414 C107.11364593 11.89480636 107.11376646 12.94561857 107.11389065 14.02827358 C107.11314117 17.44725562 107.10551136 20.8661839 107.09765625 24.28515625 C107.09618694 26.38895644 107.09516616 28.49275699 107.09460449 30.59655762 C107.08935036 38.41854397 107.0753893 46.2405225 107.0625 54.0625 C107.041875 71.531875 107.02125 89.00125 107 107 C71.69 107 36.38 107 0 107 C0 71.69 0 36.38 0 0 Z " fill="#272727" transform="translate(255,251)"/>
<path d="M0 0 C0.67968338 -0.00335861 1.35936676 -0.00671722 2.05964661 -0.01017761 C4.31720788 -0.01971378 6.5746952 -0.02163206 8.83227539 -0.02270508 C10.39547253 -0.02591584 11.95866936 -0.02927977 13.52186584 -0.03279114 C16.80299578 -0.0387891 20.08409934 -0.04063036 23.36523438 -0.04003906 C27.57668608 -0.03993741 31.78796931 -0.05358997 35.99938107 -0.07081127 C39.22922039 -0.08191142 42.45901874 -0.08395888 45.6888752 -0.08342934 C47.24186344 -0.08461244 48.79485263 -0.08905263 50.34782219 -0.0967617 C52.51715887 -0.10652171 54.68612656 -0.10369961 56.85546875 -0.09765625 C58.0915538 -0.09908127 59.32763885 -0.10050629 60.60118103 -0.10197449 C63.49243164 0.14526367 63.49243164 0.14526367 65.49243164 2.14526367 C65.7396698 4.99182129 65.7396698 4.99182129 65.73535156 8.67456055 C65.73724991 9.34463638 65.73914825 10.01471222 65.74110413 10.70509338 C65.74481538 12.92485168 65.73410287 15.14428434 65.72290039 17.36401367 C65.72170865 18.90336061 65.72125542 20.44270829 65.72151184 21.98205566 C65.71994636 25.21016992 65.71165197 28.43817338 65.69824219 31.66625977 C65.68125224 35.80926244 65.67742782 39.95214326 65.67818737 44.0951767 C65.67791575 47.27440561 65.6724359 50.45360774 65.66518593 53.63282776 C65.66199821 55.16068825 65.66003161 56.68855177 65.65929222 58.21641541 C65.65712975 60.34965202 65.64838757 62.48275811 65.63769531 64.6159668 C65.63388351 65.83127075 65.63007172 67.04657471 65.62614441 68.29870605 C65.49243164 71.14526367 65.49243164 71.14526367 64.49243164 73.14526367 C40.73243164 73.14526367 16.97243164 73.14526367 -7.50756836 73.14526367 C-7.52819336 61.28588867 -7.54881836 49.42651367 -7.57006836 37.20776367 C-7.57917236 33.45796143 -7.58827637 29.70815918 -7.59765625 25.84472656 C-7.60217285 21.27893066 -7.60217285 21.27893066 -7.60301208 19.14402771 C-7.60455144 17.64740197 -7.6080762 16.1507775 -7.61314392 14.65415955 C-7.62042295 12.392139 -7.62147573 10.13019449 -7.62109375 7.86816406 C-7.62331436 6.59131241 -7.62553497 5.31446075 -7.62782288 3.99891663 C-7.40632386 -1.25727949 -4.65390155 0.01436079 0 0 Z " fill="#292929" transform="translate(262.507568359375,168.854736328125)"/>
<path d="M0 0 C17.469375 -0.020625 34.93875 -0.04125 52.9375 -0.0625 C58.46234131 -0.071604 63.98718262 -0.08070801 69.67944336 -0.09008789 C76.40344238 -0.09460449 76.40344238 -0.09460449 79.54689026 -0.09544373 C81.75184836 -0.09698369 83.9568056 -0.10050967 86.16175842 -0.10557556 C89.49318922 -0.11284978 92.82456836 -0.11390753 96.15600586 -0.11352539 C97.64017832 -0.11892255 97.64017832 -0.11892255 99.15433407 -0.12442875 C100.04574376 -0.12305125 100.93715345 -0.12167376 101.85557556 -0.12025452 C102.63633422 -0.12117631 103.41709288 -0.1220981 104.22151089 -0.12304783 C106 0 106 0 107 1 C107.0953919 2.37876025 107.12188622 3.76236916 107.12025452 5.14442444 C107.12232076 6.48153898 107.12232076 6.48153898 107.12442875 7.84566593 C107.11903159 9.3298384 107.11903159 9.3298384 107.11352539 10.84399414 C107.11364593 11.89480636 107.11376646 12.94561857 107.11389065 14.02827358 C107.11314117 17.44725562 107.10551136 20.8661839 107.09765625 24.28515625 C107.09618694 26.38895644 107.09516616 28.49275699 107.09460449 30.59655762 C107.08935036 38.41854397 107.0753893 46.2405225 107.0625 54.0625 C107.041875 71.531875 107.02125 89.00125 107 107 C71.69 107 36.38 107 0 107 C0 71.69 0 36.38 0 0 Z M1 1 C1 10.9 1 20.8 1 31 C1.66 31 2.32 31 3 31 C3 30.34 3 29.68 3 29 C3.99 29 4.98 29 6 29 C6.33 29.66 6.66 30.32 7 31 C7.66 31 8.32 31 9 31 C8.67 32.98 8.34 34.96 8 37 C6.515 37.495 6.515 37.495 5 38 C5.99 38.33 6.98 38.66 8 39 C9.1875 41.0625 9.1875 41.0625 10 43 C10.45375 42.505 10.9075 42.01 11.375 41.5 C13 40 13 40 15 40 C16.32 42.64 17.64 45.28 19 48 C22.68754757 47.50168276 24.60490662 46.89932357 27 44 C27.33 44.66 27.66 45.32 28 46 C28.66 46.33 29.32 46.66 30 47 C30.33 45.35 30.66 43.7 31 42 C30.01 42 29.02 42 28 42 C28 41.34 28 40.68 28 40 C28.66 40 29.32 40 30 40 C30 39.34 30 38.68 30 38 C30.66 38 31.32 38 32 38 C33.04449911 41.13349732 32.93423645 41.98968256 32 45 C32.66 45.33 33.32 45.66 34 46 C34.99 45.34 35.98 44.68 37 44 C36 47 36 47 33.0625 48.8125 C29.54319836 51.32628688 28.93924273 52.86733198 28 57 C30.89186786 58.33304698 30.89186786 58.33304698 33.1875 57.0625 C33.785625 56.711875 34.38375 56.36125 35 56 C35 55.34 35 54.68 35 54 C36.65 54 38.3 54 40 54 C40 54.66 40 55.32 40 56 C38.68 56 37.36 56 36 56 C36 57.32 36 58.64 36 60 C38.475 59.505 38.475 59.505 41 59 C41 58.34 41 57.68 41 57 C41.66 57 42.32 57 43 57 C43 56.34 43 55.68 43 55 C44.32 55 45.64 55 47 55 C46.49396008 52.83125748 46.00016187 51.00032373 45 49 C45.99 49 46.98 49 48 49 C48.33 49.99 48.66 50.98 49 52 C49.66 52.66 50.32 53.32 51 54 C52.32 54 53.64 54 55 54 C54.01 54.495 54.01 54.495 53 55 C53.33 55.99 53.66 56.98 54 58 C54 57.34 54 56.68 54 56 C54.66 56 55.32 56 56 56 C54.36363636 61.66433566 54.36363636 61.66433566 52.375 63.5 C50.66031587 65.05373322 50.66031587 65.05373322 50.8125 68.1875 C50.874375 69.115625 50.93625 70.04375 51 71 C50.01 71.495 50.01 71.495 49 72 C49 72.66 49 73.32 49 74 C51.64846603 76.36214538 53.61516396 77.87172132 57 79 C57.144375 79.598125 57.28875 80.19625 57.4375 80.8125 C58.18951488 83.7370023 59.79712511 85.01030655 62 87 C64.99324263 85.9024777 65.84610901 85.32317108 67.25 82.375 C67.62125 81.199375 67.62125 81.199375 68 80 C68.99 81.485 68.99 81.485 70 83 C72.76276177 82.47731534 75.3260876 81.89130413 78 81 C77.67 79.68 77.34 78.36 77 77 C78.485 77.495 78.485 77.495 80 78 C80 77.34 80 76.68 80 76 C80.78375 75.9175 81.5675 75.835 82.375 75.75 C85.14749104 75.27193661 85.14749104 75.27193661 86.3125 72.9375 C86.539375 72.298125 86.76625 71.65875 87 71 C87.99 71 88.98 71 90 71 C89.505 72.485 89.505 72.485 89 74 C89 74.99 89 75.98 89 77 C90.485 77.495 90.485 77.495 92 78 C91.67 80.64 91.34 83.28 91 86 C91.66 85.67 92.32 85.34 93 85 C93 84.34 93 83.68 93 83 C93.66 83 94.32 83 95 83 C96 85 96 85 96 86 C95.649375 86.639375 95.29875 87.27875 94.9375 87.9375 C94.628125 88.618125 94.31875 89.29875 94 90 C94.33 90.66 94.66 91.32 95 92 C93.35 91.34 91.7 90.68 90 90 C88.5216774 92.95664519 88.93967217 95.74229737 89 99 C90.32 98.67 91.64 98.34 93 98 C93.33 98.66 93.66 99.32 94 100 C92.35 100.33 90.7 100.66 89 101 C89 101.99 89 102.98 89 104 C86.36 104.33 83.72 104.66 81 105 C81 105.33 81 105.66 81 106 C89.25 106 97.5 106 106 106 C106 71.35 106 36.7 106 1 C71.35 1 36.7 1 1 1 Z M29 58 C30 60 30 60 30 60 Z M92 94 C93.32 94.33 94.64 94.66 96 95 C95.67 95.99 95.34 96.98 95 98 C93.97895449 97.02149805 92.9793879 96.02019573 92 95 C92 94.67 92 94.34 92 94 Z " fill="#272727" transform="translate(255,251)"/>
<path d="M0 0 C1.19794189 -0.00315216 2.39588379 -0.00630432 3.63012695 -0.009552 C4.93425537 -0.00752777 6.23838379 -0.00550354 7.58203125 -0.00341797 C8.9234214 -0.00409107 10.26481144 -0.00506115 11.60620117 -0.00631714 C14.42074746 -0.00779382 17.23526207 -0.00564051 20.04980469 -0.00097656 C23.66493756 0.00472073 27.2799962 0.00144156 30.89512634 -0.00454903 C33.66598067 -0.00815544 36.43681727 -0.00701569 39.20767212 -0.00442123 C41.19142708 -0.0034258 43.17518272 -0.00647288 45.15893555 -0.009552 C46.35687744 -0.00639984 47.55481934 -0.00324768 48.7890625 0 C49.84971924 0.00079559 50.91037598 0.00159119 52.00317383 0.00241089 C54.39453125 0.12939453 54.39453125 0.12939453 55.39453125 1.12939453 C55.49363685 2.99575241 55.52252386 4.86587647 55.52392578 6.73486328 C55.52707794 7.93280518 55.5302301 9.13074707 55.53347778 10.36499023 C55.53145355 11.66911865 55.52942932 12.97324707 55.52734375 14.31689453 C55.52801685 15.65828468 55.52898693 16.99967472 55.53024292 18.34106445 C55.53171961 21.15561074 55.52956629 23.97012535 55.52490234 26.78466797 C55.51920506 30.39980084 55.52248422 34.01485948 55.52847481 37.62998962 C55.53208122 40.40084395 55.53094147 43.17168055 55.52834702 45.9425354 C55.52735158 47.92629036 55.53039866 49.910046 55.53347778 51.89379883 C55.52874954 53.69071167 55.52874954 53.69071167 55.52392578 55.52392578 C55.52313019 56.58458252 55.52233459 57.64523926 55.52151489 58.73803711 C55.39453125 61.12939453 55.39453125 61.12939453 54.39453125 62.12939453 C52.49209363 62.2233075 50.58614666 62.24683111 48.68139648 62.24291992 C47.46020615 62.24284439 46.23901581 62.24276886 44.9808197 62.24269104 C43.63825439 62.23758364 42.2956895 62.23236764 40.953125 62.22705078 C39.58691967 62.22518653 38.22071368 62.22376266 36.85450745 62.22276306 C33.2525143 62.21893847 29.65056125 62.2091087 26.04858398 62.19805908 C22.3754938 62.18784369 18.70239716 62.18326517 15.02929688 62.17822266 C7.81769002 62.16748637 0.60611625 62.15041067 -6.60546875 62.12939453 C-6.62859639 54.19325666 -6.64638598 46.25713277 -6.65728092 38.32096958 C-6.66250883 34.63624955 -6.6696048 30.9515525 -6.6809082 27.2668457 C-6.69174037 23.71368622 -6.69774628 20.1605489 -6.70034599 16.60737419 C-6.70219965 15.24893787 -6.70581913 13.89050282 -6.71119881 12.53207588 C-6.7184135 10.6355723 -6.71887684 8.7390466 -6.71899414 6.8425293 C-6.72121475 5.76109146 -6.72343536 4.67965363 -6.72572327 3.56544495 C-6.49967003 -1.01381824 -4.01173914 0.00300919 0 0 Z " fill="#292929" transform="translate(190.60546875,250.87060546875)"/>
<path d="M0 0 C0.495 0.99 0.495 0.99 1 2 C1.99 2 2.98 2 4 2 C4.12375 2.78375 4.2475 3.5675 4.375 4.375 C4.79117993 7.14057822 4.79117993 7.14057822 7 9 C6.625 12.625 6.625 12.625 6 16 C6.33 15.34 6.66 14.68 7 14 C10.76687864 14 11.91190305 14.23537317 15 16 C13.7934375 16.3403125 13.7934375 16.3403125 12.5625 16.6875 C11.716875 17.120625 10.87125 17.55375 10 18 C9.10613836 20.54775306 9.10613836 20.54775306 9 23 C7.35 22.67 5.7 22.34 4 22 C3.896875 22.78375 3.79375 23.5675 3.6875 24.375 C3 27 3 27 0 29 C-2.625 28.625 -2.625 28.625 -5 28 C-6.27260229 27.89117673 -6.27260229 27.89117673 -7.8125 29.5625 C-10 31 -10 31 -12.25 30.6875 C-12.8275 30.460625 -13.405 30.23375 -14 30 C-14.66 31.32 -15.32 32.64 -16 34 C-17.32 33.34 -18.64 32.68 -20 32 C-19.67 33.32 -19.34 34.64 -19 36 C-19.66 36 -20.32 36 -21 36 C-21.66 35.01 -22.32 34.02 -23 33 C-24.32 33 -25.64 33 -27 33 C-27 32.34 -27 31.68 -27 31 C-26.34 31 -25.68 31 -25 31 C-25 30.34 -25 29.68 -25 29 C-25.66 29 -26.32 29 -27 29 C-27 28.34 -27 27.68 -27 27 C-26.34 27 -25.68 27 -25 27 C-24.67 26.01 -24.34 25.02 -24 24 C-23.34870203 22.65909241 -22.68486725 21.32407669 -22 20 C-23.32 20 -24.64 20 -26 20 C-26 21.32 -26 22.64 -26 24 C-27.32 24.33 -28.64 24.66 -30 25 C-30 25.66 -30 26.32 -30 27 C-31.98 27.33 -33.96 27.66 -36 28 C-35.67 26.68 -35.34 25.36 -35 24 C-35.99 23.67 -36.98 23.34 -38 23 C-38 21.35 -38 19.7 -38 18 C-38.66 18 -39.32 18 -40 18 C-40.33 17.01 -40.66 16.02 -41 15 C-40.01 14.67 -39.02 14.34 -38 14 C-38.20625 13.4225 -38.4125 12.845 -38.625 12.25 C-39.08661261 9.48032433 -38.42944945 8.35438733 -37 6 C-33.51375944 6.6456001 -30.87501211 7.92360237 -28 10 C-28 10.99 -28 11.98 -28 13 C-27.34 13.33 -26.68 13.66 -26 14 C-26 14.99 -26 15.98 -26 17 C-23.57080135 17.13440778 -23.57080135 17.13440778 -21 16 C-19.61706907 13.44481903 -18.78208351 10.79133871 -18 8 C-17.731875 8.639375 -17.46375 9.27875 -17.1875 9.9375 C-16.11332248 12.33131686 -16.11332248 12.33131686 -13 13 C-10.76975869 11.76486718 -10.76975869 11.76486718 -9 10 C-9 9.34 -9 8.68 -9 8 C-6.36 7.34 -3.72 6.68 -1 6 C-1.495 4.515 -1.495 4.515 -2 3 C-1.34 3 -0.68 3 0 3 C0 2.01 0 1.02 0 0 Z " fill="#2B2B2B" transform="translate(341,320)"/>
<path d="M0 0 C17.469375 -0.020625 34.93875 -0.04125 52.9375 -0.0625 C58.46234131 -0.071604 63.98718262 -0.08070801 69.67944336 -0.09008789 C76.40344238 -0.09460449 76.40344238 -0.09460449 79.54689026 -0.09544373 C81.75184836 -0.09698369 83.9568056 -0.10050967 86.16175842 -0.10557556 C89.49318922 -0.11284978 92.82456836 -0.11390753 96.15600586 -0.11352539 C97.64017832 -0.11892255 97.64017832 -0.11892255 99.15433407 -0.12442875 C100.04574376 -0.12305125 100.93715345 -0.12167376 101.85557556 -0.12025452 C102.63633422 -0.12117631 103.41709288 -0.1220981 104.22151089 -0.12304783 C106 0 106 0 107 1 C107.0953919 2.37876025 107.12188622 3.76236916 107.12025452 5.14442444 C107.12232076 6.48153898 107.12232076 6.48153898 107.12442875 7.84566593 C107.11903159 9.3298384 107.11903159 9.3298384 107.11352539 10.84399414 C107.11364593 11.89480636 107.11376646 12.94561857 107.11389065 14.02827358 C107.11314117 17.44725562 107.10551136 20.8661839 107.09765625 24.28515625 C107.09618694 26.38895644 107.09516616 28.49275699 107.09460449 30.59655762 C107.08935036 38.41854397 107.0753893 46.2405225 107.0625 54.0625 C107.041875 71.531875 107.02125 89.00125 107 107 C71.69 107 36.38 107 0 107 C0 71.69 0 36.38 0 0 Z M1 1 C1 10.9 1 20.8 1 31 C1.66 31 2.32 31 3 31 C3 30.34 3 29.68 3 29 C3.99 29 4.98 29 6 29 C6.33 29.66 6.66 30.32 7 31 C7.66 31 8.32 31 9 31 C8.67 32.98 8.34 34.96 8 37 C6.515 37.495 6.515 37.495 5 38 C5.99 38.33 6.98 38.66 8 39 C9.1875 41.0625 9.1875 41.0625 10 43 C10.45375 42.505 10.9075 42.01 11.375 41.5 C13 40 13 40 15 40 C14.67 40.66 14.34 41.32 14 42 C13.34 42 12.68 42 12 42 C12 42.66 12 43.32 12 44 C9.36 44 6.72 44 4 44 C3.67 44.66 3.34 45.32 3 46 C3.33 46.99 3.66 47.98 4 49 C3.34 49 2.68 49 2 49 C2 47.35 2 45.7 2 44 C1.67 44 1.34 44 1 44 C1 64.46 1 84.92 1 106 C35.65 106 70.3 106 106 106 C106 71.35 106 36.7 106 1 C71.35 1 36.7 1 1 1 Z " fill="#7E7E7E" transform="translate(255,251)"/>
<path d="M0 0 C0.33 0 0.66 0 1 0 C1 19.8 1 39.6 1 60 C0.67 60 0.34 60 0 60 C0 53.73 0 47.46 0 41 C-1.32 40.67 -2.64 40.34 -4 40 C-4.33 40.99 -4.66 41.98 -5 43 C-7.97 42.01 -10.94 41.02 -14 40 C-14 39.34 -14 38.68 -14 38 C-11.69 38 -9.38 38 -7 38 C-7.66 36.35 -8.32 34.7 -9 33 C-9.66 33 -10.32 33 -11 33 C-10.61679443 30.31756099 -9.92847619 28.90198589 -8.3125 26.6875 C-7.549375 26.130625 -6.78625 25.57375 -6 25 C-4.02 25.33 -2.04 25.66 0 26 C0 17.42 0 8.84 0 0 Z " fill="#434343" transform="translate(245,252)"/>
<path d="M0 0 C23.1 0 46.2 0 70 0 C70 0.33 70 0.66 70 1 C50.53 1 31.06 1 11 1 C11 1.66 11 2.32 11 3 C10.01 3.33 9.02 3.66 8 4 C8.99 4.66 9.98 5.32 11 6 C9.625 7.5 9.625 7.5 8 9 C7.34 9 6.68 9 6 9 C5.34 10.32 4.68 11.64 4 13 C3.01 13 2.02 13 1 13 C1 12.34 1 11.68 1 11 C1.66 11 2.32 11 3 11 C3 10.34 3 9.68 3 9 C2.01 8.67 1.02 8.34 0 8 C0 5.36 0 2.72 0 0 Z " fill="#757575" transform="translate(256,169)"/>
<path d="M0 0 C0.66 0 1.32 0 2 0 C2 0.66 2 1.32 2 2 C2.66 2.33 3.32 2.66 4 3 C3.67 4.32 3.34 5.64 3 7 C4.65 6.34 6.3 5.68 8 5 C7.75 7.375 7.75 7.375 7 10 C4.73330587 11.51112942 2.5968046 12.13439847 0 13 C-1.00217064 16.58327753 -1.00217064 16.58327753 0 20 C-1.75 21.125 -1.75 21.125 -4 22 C-6.25 21.125 -6.25 21.125 -8 20 C-8 19.34 -8 18.68 -8 18 C-7.01 18 -6.02 18 -5 18 C-3.27056525 16.68732044 -3.27056525 16.68732044 -2 15 C-2 14.34 -2 13.68 -2 13 C-3.32 13 -4.64 13 -6 13 C-7.34164079 12.7018576 -8.67851173 12.37756808 -10 12 C-10 12.99 -10 13.98 -10 15 C-10.99 15.33 -11.98 15.66 -13 16 C-13 13.36 -13 10.72 -13 8 C-12.34 8 -11.68 8 -11 8 C-11 8.66 -11 9.32 -11 10 C-9.35 9.67 -7.7 9.34 -6 9 C-5.67 8.01 -5.34 7.02 -5 6 C-3.68 6.33 -2.36 6.66 -1 7 C-1.33 6.67 -1.66 6.34 -2 6 C-2 4.68 -2 3.36 -2 2 C-1.34 2 -0.68 2 0 2 C0 1.34 0 0.68 0 0 Z " fill="#2D2D2D" transform="translate(285,289)"/>
<path d="M0 0 C0.309375 0.9590625 0.309375 0.9590625 0.625 1.9375 C1.8866994 4.27553884 1.8866994 4.27553884 4.8125 5 C8.84576357 5 10.16458518 3.75202027 13 1 C13.99 1.66 14.98 2.32 16 3 C15.195625 3.226875 14.39125 3.45375 13.5625 3.6875 C12.716875 4.120625 11.87125 4.55375 11 5 C10.10613836 7.54775306 10.10613836 7.54775306 10 10 C8.35 9.67 6.7 9.34 5 9 C4.8453125 10.175625 4.8453125 10.175625 4.6875 11.375 C4 14 4 14 1 16 C-1.6875 15.625 -1.6875 15.625 -4 15 C-3.5670911 11.96963773 -3.03169454 10.04997985 -1.375 7.4375 C0.26346741 5.12896097 0.26346741 5.12896097 -0.375 2.75 C-0.58125 2.1725 -0.7875 1.595 -1 1 C-0.67 0.67 -0.34 0.34 0 0 Z " fill="#353535" transform="translate(340,333)"/>
<path d="M0 0 C10.89 0 21.78 0 33 0 C33 0.33 33 0.66 33 1 C23.43 1 13.86 1 4 1 C4 1.66 4 2.32 4 3 C3.34 3 2.68 3 2 3 C2 3.99 2 4.98 2 6 C2.66 6 3.32 6 4 6 C4.33 7.32 4.66 8.64 5 10 C4.01 10.66 3.02 11.32 2 12 C1.48987435 14.61196291 1.48987435 14.61196291 1.48828125 17.6640625 C1.45283203 18.78554688 1.41738281 19.90703125 1.38085938 21.0625 C1.35830078 22.238125 1.33574219 23.41375 1.3125 24.625 C1.27833984 25.80835938 1.24417969 26.99171875 1.20898438 28.2109375 C1.12629425 31.1405306 1.05721286 34.0698164 1 37 C0.67 37 0.34 37 0 37 C0 24.79 0 12.58 0 0 Z " fill="#1A1A1A" transform="translate(185,252)"/>
<path d="M0 0 C0.99 0.33 1.98 0.66 3 1 C2.34 1 1.68 1 1 1 C1 2.32 1 3.64 1 5 C1.66 5.33 2.32 5.66 3 6 C3 7.32 3 8.64 3 10 C3.66 10.33 4.32 10.66 5 11 C4.01 12.485 4.01 12.485 3 14 C3 14.99 3 15.98 3 17 C2.34 17 1.68 17 1 17 C-0.33333333 15.66666667 -1.66666667 14.33333333 -3 13 C-3.99 12.67 -4.98 12.34 -6 12 C-6.36923077 4.49230769 -6.36923077 4.49230769 -4.5 2 C-4.005 1.67 -3.51 1.34 -3 1 C-3 1.66 -3 2.32 -3 3 C-2.34 3 -1.68 3 -1 3 C-0.67 2.01 -0.34 1.02 0 0 Z M-4 4 C-4 5.65 -4 7.3 -4 9 C-3.34 8.34 -2.68 7.68 -2 7 C-2.66 6.01 -3.32 5.02 -4 4 Z " fill="#323232" transform="translate(168,119)"/>
<path d="M0 0 C0.66 0 1.32 0 2 0 C2 1.98 2 3.96 2 6 C3.65 6.33 5.3 6.66 7 7 C7 7.33 7 7.66 7 8 C0.50448709 9.20287276 -4.60985973 8.58444052 -11 7 C-10.67 5.35 -10.34 3.7 -10 2 C-6.62182575 1.15545644 -4.32534757 0.89155081 -1 2 C-0.67 1.34 -0.34 0.68 0 0 Z " fill="#292929" transform="translate(215,232)"/>
<path d="M0 0 C-1.485 1.485 -1.485 1.485 -3 3 C-2.67 3.66 -2.34 4.32 -2 5 C0.96175123 4.38722388 2.38058783 3.74627478 5 2 C5 5 5 5 3.5625 6.5625 C3.046875 7.036875 2.53125 7.51125 2 8 C1.67 8.66 1.34 9.32 1 10 C-0.32 9.34 -1.64 8.68 -3 8 C-2.67 9.32 -2.34 10.64 -2 12 C-2.66 12 -3.32 12 -4 12 C-4.66 11.01 -5.32 10.02 -6 9 C-7.32 9 -8.64 9 -10 9 C-10 8.34 -10 7.68 -10 7 C-9.34 7 -8.68 7 -8 7 C-8 6.34 -8 5.68 -8 5 C-8.66 5 -9.32 5 -10 5 C-10 4.34 -10 3.68 -10 3 C-9.34 3 -8.68 3 -8 3 C-7.67 2.01 -7.34 1.02 -7 0 C-4.3333581 -1.33332095 -2.83319697 -0.67102033 0 0 Z " fill="#323232" transform="translate(324,344)"/>
<path d="M0 0 C0 0.99 0 1.98 0 3 C0.16371094 3.60328125 0.32742188 4.2065625 0.49609375 4.828125 C1.12016517 7.51792119 1.09533663 9.99172348 1.0625 12.75 C1.05347656 13.73484375 1.04445313 14.7196875 1.03515625 15.734375 C1.02355469 16.48203125 1.01195312 17.2296875 1 18 C0.67 17.34 0.34 16.68 0 16 C-0.99 16.33 -1.98 16.66 -3 17 C-3 16.01 -3 15.02 -3 14 C-3.66 13.67 -4.32 13.34 -5 13 C-6 12 -6 12 -6.375 9.25 C-5.88344974 4.98989775 -4.19251574 3.72531832 -1 1 C-0.67 0.67 -0.34 0.34 0 0 Z " fill="#2D2D2D" transform="translate(359,316)"/>
<path d="M0 0 C2 2 4 4 6 6 C6.99 6.33 7.98 6.66 9 7 C8.67 8.32 8.34 9.64 8 11 C11.3 11 14.6 11 18 11 C18 11.33 18 11.66 18 12 C12.06 12 6.12 12 0 12 C0 8.04 0 4.08 0 0 Z " fill="#212121" transform="translate(256,345)"/>
<path d="M0 0 C0.99 0.33 1.98 0.66 3 1 C4.125 4.4375 4.125 4.4375 5 8 C5.33 8.66 5.66 9.32 6 10 C5.01 10.495 5.01 10.495 4 11 C4 11.66 4 12.32 4 13 C2.68 13.33 1.36 13.66 0 14 C-0.33 15.32 -0.66 16.64 -1 18 C-1.33 17.01 -1.66 16.02 -2 15 C-2.99 14.34 -3.98 13.68 -5 13 C-5 12.34 -5 11.68 -5 11 C-4.195625 10.87625 -3.39125 10.7525 -2.5625 10.625 C-1.716875 10.41875 -0.87125 10.2125 0 10 C0.33 9.34 0.66 8.68 1 8 C0.34 8 -0.32 8 -1 8 C-1 7.34 -1 6.68 -1 6 C-0.01 6 0.98 6 2 6 C2 5.01 2 4.02 2 3 C1.34 3 0.68 3 0 3 C0 2.01 0 1.02 0 0 Z " fill="#313131" transform="translate(162,176)"/>
<path d="M0 0 C0.66 0.66 1.32 1.32 2 2 C3.134375 2 4.26875 2 5.4375 2 C9 2 9 2 12 4 C12.33 3.34 12.66 2.68 13 2 C13.33 2.66 13.66 3.32 14 4 C13.67 4.99 13.34 5.98 13 7 C12.01 7 11.02 7 10 7 C10 6.34 10 5.68 10 5 C9.34 5 8.68 5 8 5 C7.34 6.32 6.68 7.64 6 9 C5.67 7.68 5.34 6.36 5 5 C4.67 6.65 4.34 8.3 4 10 C3.34 10 2.68 10 2 10 C2.33 8.35 2.66 6.7 3 5 C2.01 5.33 1.02 5.66 0 6 C0 4.68 0 3.36 0 2 C-0.99 1.67 -1.98 1.34 -3 1 C-2.01 0.67 -1.02 0.34 0 0 Z " fill="#363636" transform="translate(282,334)"/>
<path d="M0 0 C1.0625 1.875 1.0625 1.875 2 4 C1.67 4.66 1.34 5.32 1 6 C1.99 6.33 2.98 6.66 4 7 C2.68 7.33 1.36 7.66 0 8 C0.99 8.66 1.98 9.32 3 10 C-2.28 10 -7.56 10 -13 10 C-13 9.67 -13 9.34 -13 9 C-10.36 8.67 -7.72 8.34 -5 8 C-5 7.01 -5 6.02 -5 5 C-3.35 4.67 -1.7 4.34 0 4 C-0.33 3.01 -0.66 2.02 -1 1 C-0.67 0.67 -0.34 0.34 0 0 Z " fill="#212121" transform="translate(349,347)"/>
<path d="M0 0 C0.66 0 1.32 0 2 0 C1.67 1.65 1.34 3.3 1 5 C-0.32 5.33 -1.64 5.66 -3 6 C-2.42655063 3.13275314 -2.1385485 2.1385485 0 0 Z M-7 6 C-6.01 6.33 -5.02 6.66 -4 7 C-4.99 7.495 -4.99 7.495 -6 8 C-7.0761054 11.57535019 -7.0761054 11.57535019 -6 15 C-7.75 16.125 -7.75 16.125 -10 17 C-12.25 16.125 -12.25 16.125 -14 15 C-14 14.34 -14 13.68 -14 13 C-13.01 13 -12.02 13 -11 13 C-10.67 12.34 -10.34 11.68 -10 11 C-9.01 11 -8.02 11 -7 11 C-7 9.35 -7 7.7 -7 6 Z " fill="#363636" transform="translate(291,294)"/>
<path d="M0 0 C0.33 0 0.66 0 1 0 C1 1.65 1 3.3 1 5 C1.66 5 2.32 5 3 5 C2.67 3.68 2.34 2.36 2 1 C2.99 0.67 3.98 0.34 5 0 C5.99 0.99 6.98 1.98 8 3 C6.68 5.31 5.36 7.62 4 10 C3.34 9.67 2.68 9.34 2 9 C1.34 9.66 0.68 10.32 0 11 C0 7.37 0 3.74 0 0 Z " fill="#212121" transform="translate(256,295)"/>
<path d="M0 0 C0.99 0.66 1.98 1.32 3 2 C1.625 4 1.625 4 0 6 C-0.66 6 -1.32 6 -2 6 C-1.67 7.98 -1.34 9.96 -1 12 C-1.66 12 -2.32 12 -3 12 C-3.33 12.33 -3.66 12.66 -4 13 C-4.66 12.67 -5.32 12.34 -6 12 C-6 10.68 -6 9.36 -6 8 C-6.66 7.34 -7.32 6.68 -8 6 C-7.34 6 -6.68 6 -6 6 C-6 5.01 -6 4.02 -6 3 C-3.525 3.99 -3.525 3.99 -1 5 C-0.67 3.35 -0.34 1.7 0 0 Z " fill="#2F2F2F" transform="translate(112,143)"/>
<path d="M0 0 C9.57 0 19.14 0 29 0 C29 0.33 29 0.66 29 1 C27.35 1 25.7 1 24 1 C24 1.66 24 2.32 24 3 C21 4 21 4 18 4 C17.34 3.67 16.68 3.34 16 3 C16.33 2.34 16.66 1.68 17 1 C11.39 1 5.78 1 0 1 C0 0.67 0 0.34 0 0 Z " fill="#1D1D1D" transform="translate(216,82)"/>
<path d="M0 0 C0.99 0 1.98 0 3 0 C3 0.99 3 1.98 3 3 C4.98 2.34 6.96 1.68 9 1 C9.33 1.99 9.66 2.98 10 4 C9.67 4.66 9.34 5.32 9 6 C8.34 6 7.68 6 7 6 C7 5.34 7 4.68 7 4 C6.2575 4.309375 5.515 4.61875 4.75 4.9375 C2.49307824 5.8094925 0.3549847 6.47667007 -2 7 C-2 3.89448334 -1.4606285 2.64738916 0 0 Z " fill="#313131" transform="translate(118,152)"/>
<path d="M0 0 C0.33 2.64 0.66 5.28 1 8 C0.34 8 -0.32 8 -1 8 C-1.33 8.99 -1.66 9.98 -2 11 C-2.99 10.34 -3.98 9.68 -5 9 C-5.40843923 6.28796348 -5.13336867 3.7562858 -5 1 C-2 0 -2 0 0 0 Z " fill="#2C2C2C" transform="translate(231,130)"/>
<path d="M0 0 C0.99 0.33 1.98 0.66 3 1 C2.9278125 1.61488281 2.855625 2.22976563 2.78125 2.86328125 C2.6884375 3.67152344 2.595625 4.47976563 2.5 5.3125 C2.4071875 6.11300781 2.314375 6.91351563 2.21875 7.73828125 C1.95186537 10.11896555 1.95186537 10.11896555 2 13 C0.35 12.67 -1.3 12.34 -3 12 C-3 10.35 -3 8.7 -3 7 C-2.34 7 -1.68 7 -1 7 C-1.33 6.01 -1.66 5.02 -2 4 C-1.0625 1.8125 -1.0625 1.8125 0 0 Z " fill="#303030" transform="translate(261,301)"/>
<path d="M0 0 C1.32 0.66 2.64 1.32 4 2 C3.01 2.33 2.02 2.66 1 3 C1.99 3.33 2.98 3.66 4 4 C4 5.65 4 7.3 4 9 C0 9 0 9 -2 8 C-2.125 5.125 -2.125 5.125 -2 2 C-1.34 1.34 -0.68 0.68 0 0 Z " fill="#333333" transform="translate(307,303)"/>
<path d="M0 0 C-1.75 3.875 -1.75 3.875 -4 5 C-4 6.32 -4 7.64 -4 9 C-5.98 9.99 -5.98 9.99 -8 11 C-8.86476686 8.57865279 -9.1422798 7.39126946 -8.25 4.9375 C-5.68008445 0.9541309 -4.98933081 0 0 0 Z " fill="#2E2E2E" transform="translate(289,280)"/>
<path d="M0 0 C0.66 0 1.32 0 2 0 C2.33 3.96 2.66 7.92 3 12 C2.34 12 1.68 12 1 12 C0.67 12.66 0.34 13.32 0 14 C-0.99 13.01 -1.98 12.02 -3 11 C-2.34 9.68 -1.68 8.36 -1 7 C-0.34 7 0.32 7 1 7 C0.67 4.69 0.34 2.38 0 0 Z " fill="#313131" transform="translate(123,158)"/>
<path d="M0 0 C0.99 0 1.98 0 3 0 C3 1.98 3 3.96 3 6 C2.05125 6.0825 1.1025 6.165 0.125 6.25 C-3.10461791 6.65074923 -3.10461791 6.65074923 -4.375 9.0625 C-4.58125 9.701875 -4.7875 10.34125 -5 11 C-5 8.69 -5 6.38 -5 4 C-3.35 3.34 -1.7 2.68 0 2 C0 1.34 0 0.68 0 0 Z " fill="#343434" transform="translate(298,306)"/>
<path d="M0 0 C0.66 2.64 1.32 5.28 2 8 C0.35 8.33 -1.3 8.66 -3 9 C-3 7.02 -3 5.04 -3 3 C-3.66 3 -4.32 3 -5 3 C-5 2.34 -5 1.68 -5 1 C-3 0 -3 0 0 0 Z " fill="#2D2D2D" transform="translate(197,231)"/>
<path d="M0 0 C1.32 0.66 2.64 1.32 4 2 C3.195625 2.226875 2.39125 2.45375 1.5625 2.6875 C0.716875 3.120625 -0.12875 3.55375 -1 4 C-1.89386164 6.54775306 -1.89386164 6.54775306 -2 9 C-3.65 8.67 -5.3 8.34 -7 8 C-7.33 8.99 -7.66 9.98 -8 11 C-8.66 9.68 -9.32 8.36 -10 7 C-9.34 7 -8.68 7 -8 7 C-8 6.34 -8 5.68 -8 5 C-7.236875 4.731875 -6.47375 4.46375 -5.6875 4.1875 C-3.12619116 3.05575888 -1.80307062 2.08776599 0 0 Z " fill="#3C3C3C" transform="translate(352,334)"/>
<path d="M0 0 C0.66 0 1.32 0 2 0 C1.63327178 2.65877957 1.20911362 3.79835472 -0.75 5.6875 C-3.19219662 7.11211469 -5.2145116 7.61312661 -8 8 C-8.66 7.01 -9.32 6.02 -10 5 C-9.34 5 -8.68 5 -8 5 C-7.67 4.34 -7.34 3.68 -7 3 C-5.68 3.66 -4.36 4.32 -3 5 C-2.690625 4.360625 -2.38125 3.72125 -2.0625 3.0625 C-1 1 -1 1 0 0 Z " fill="#333333" transform="translate(269,316)"/>
<path d="M0 0 C1.32 0.33 2.64 0.66 4 1 C3.67 2.98 3.34 4.96 3 7 C0.69 6.67 -1.62 6.34 -4 6 C-4.33 6.66 -4.66 7.32 -5 8 C-5 5 -5 5 -3 2 C-2.01 2 -1.02 2 0 2 C0 1.34 0 0.68 0 0 Z " fill="#202020" transform="translate(126,168)"/>
<path d="M0 0 C0.99 0 1.98 0 3 0 C3 0.66 3 1.32 3 2 C3.66 2 4.32 2 5 2 C5 1.34 5 0.68 5 0 C5.66 0.33 6.32 0.66 7 1 C5.4375 3.5 5.4375 3.5 3 6 C-0.75 6.3125 -0.75 6.3125 -4 6 C-4 4.68 -4 3.36 -4 2 C-3.01 2 -2.02 2 -1 2 C-0.67 2.33 -0.34 2.66 0 3 C0 2.01 0 1.02 0 0 Z " fill="#363636" transform="translate(233,121)"/>
<path d="M0 0 C0 1.98 0 3.96 0 6 C1.65 6.33 3.3 6.66 5 7 C5 7.33 5 7.66 5 8 C2.69 8.33 0.38 8.66 -2 9 C-2.33 8.01 -2.66 7.02 -3 6 C-3.66 6 -4.32 6 -5 6 C-5 3 -5 3 -3.625 1.3125 C-2 0 -2 0 0 0 Z " fill="#323232" transform="translate(217,232)"/>
<path d="M0 0 C1.485 0.99 1.485 0.99 3 2 C3.99 1.67 4.98 1.34 6 1 C5.67 1.99 5.34 2.98 5 4 C4.34 4 3.68 4 3 4 C3.33 5.65 3.66 7.3 4 9 C2.35 9.33 0.7 9.66 -1 10 C-0.67 6.7 -0.34 3.4 0 0 Z " fill="#333333" transform="translate(140,109)"/>
<path d="M0 0 C0.66 0 1.32 0 2 0 C2 0.99 2 1.98 2 3 C2.99 3 3.98 3 5 3 C5 3.99 5 4.98 5 6 C5.66 6 6.32 6 7 6 C7.33 5.34 7.66 4.68 8 4 C8 4.99 8 5.98 8 7 C6.68 7.33 5.36 7.66 4 8 C4 7.34 4 6.68 4 6 C3.34 6 2.68 6 2 6 C2 6.66 2 7.32 2 8 C1.34 8 0.68 8 0 8 C0 5.36 0 2.72 0 0 Z " fill="#313131" transform="translate(263,273)"/>
<path d="M0 0 C0.33 0.66 0.66 1.32 1 2 C1.99 2 2.98 2 4 2 C4.33 3.65 4.66 5.3 5 7 C2.36 7.33 -0.28 7.66 -3 8 C-3 7.34 -3 6.68 -3 6 C-2.34 6 -1.68 6 -1 6 C-1.33 5.01 -1.66 4.02 -2 3 C-1.34 3 -0.68 3 0 3 C0 2.01 0 1.02 0 0 Z " fill="#303030" transform="translate(341,320)"/>
<path d="M0 0 C0.99 0 1.98 0 3 0 C2.67 0.99 2.34 1.98 2 3 C1.01 3 0.02 3 -1 3 C-0.67 2.01 -0.34 1.02 0 0 Z M-3 3 C-2.34 3 -1.68 3 -1 3 C-1 4.32 -1 5.64 -1 7 C-0.01 7 0.98 7 2 7 C2 7.99 2 8.98 2 10 C0.35 9.67 -1.3 9.34 -3 9 C-3 7.02 -3 5.04 -3 3 Z " fill="#303030" transform="translate(178,146)"/>
<path d="M0 0 C1.98 0 3.96 0 6 0 C6 0.66 6 1.32 6 2 C7.32 2 8.64 2 10 2 C10 2.66 10 3.32 10 4 C7.48367565 4.89868727 6.39267692 5.1616905 3.875 4.125 C3.25625 3.75375 2.6375 3.3825 2 3 C1.34 2.67 0.68 2.34 0 2 C0 1.34 0 0.68 0 0 Z " fill="#2D2D2D" transform="translate(265,282)"/>
<path d="M0 0 C0.99 0 1.98 0 3 0 C2.34 1.65 1.68 3.3 1 5 C-3.29 5 -7.58 5 -12 5 C-12 4.67 -12 4.34 -12 4 C-8.7 4 -5.4 4 -2 4 C-1.34 2.68 -0.68 1.36 0 0 Z " fill="#1F1F1F" transform="translate(296,236)"/>
<path d="M0 0 C0.66 0 1.32 0 2 0 C2 0.99 2 1.98 2 3 C1.34 3 0.68 3 0 3 C0 4.65 0 6.3 0 8 C-1.32 8.33 -2.64 8.66 -4 9 C-3.67 7.02 -3.34 5.04 -3 3 C-2.01 2.67 -1.02 2.34 0 2 C0 1.34 0 0.68 0 0 Z " fill="#2F2F2F" transform="translate(170,154)"/>
<path d="M0 0 C-0.66 2.31 -1.32 4.62 -2 7 C-2.99 6.67 -3.98 6.34 -5 6 C-6.1875 3.4375 -6.1875 3.4375 -7 1 C-4 0 -4 0 0 0 Z " fill="#2F2F2F" transform="translate(324,289)"/>
<path d="M0 0 C2.97 0.495 2.97 0.495 6 1 C6 3.31 6 5.62 6 8 C5.34 7.01 4.68 6.02 4 5 C2.68 5.33 1.36 5.66 0 6 C0 4.02 0 2.04 0 0 Z " fill="#2D2D2D" transform="translate(336,280)"/>
<path d="M0 0 C0.66 0 1.32 0 2 0 C2 1.32 2 2.64 2 4 C3.32 4.66 4.64 5.32 6 6 C6 6.33 6 6.66 6 7 C4.35 7 2.7 7 1 7 C1 6.34 1 5.68 1 5 C0.01 5.33 -0.98 5.66 -2 6 C-2 5.01 -2 4.02 -2 3 C-1.34 3 -0.68 3 0 3 C0 2.01 0 1.02 0 0 Z " fill="#383838" transform="translate(290,214)"/>
<path d="M0 0 C1.32 0.33 2.64 0.66 4 1 C3.67 1.99 3.34 2.98 3 4 C1.97895449 3.02149805 0.9793879 2.02019573 0 1 C0 0.67 0 0.34 0 0 Z M-4 3 C-1 3 -1 3 2 4 C2 4.66 2 5.32 2 6 C0.02 6.33 -1.96 6.66 -4 7 C-4 5.68 -4 4.36 -4 3 Z " fill="#393939" transform="translate(347,345)"/>
<path d="M0 0 C3 1 3 1 5 4 C5 4.99 5 5.98 5 7 C3.02 7.33 1.04 7.66 -1 8 C-1 7.34 -1 6.68 -1 6 C-0.01 6 0.98 6 2 6 C1.34 4.02 0.68 2.04 0 0 Z " fill="#323232" transform="translate(107,179)"/>
<path d="M0 0 C2.31 0.33 4.62 0.66 7 1 C6.01 1.495 6.01 1.495 5 2 C5 3.32 5 4.64 5 6 C4.34 6 3.68 6 3 6 C3 5.34 3 4.68 3 4 C2.01 4 1.02 4 0 4 C0 2.68 0 1.36 0 0 Z " fill="#363636" transform="translate(212,82)"/>
<path d="M0 0 C1.67542976 0.28604898 3.34385343 0.61781233 5 1 C4.67 2.65 4.34 4.3 4 6 C3.34 6 2.68 6 2 6 C1.87625 5.360625 1.7525 4.72125 1.625 4.0625 C1.315625 3.0415625 1.315625 3.0415625 1 2 C0.34 1.67 -0.32 1.34 -1 1 C-0.67 0.67 -0.34 0.34 0 0 Z " fill="#333333" transform="translate(343,328)"/>
<path d="M0 0 C0.33 0.66 0.66 1.32 1 2 C1.66 2 2.32 2 3 2 C3.33 2.99 3.66 3.98 4 5 C3.01 5 2.02 5 1 5 C0.67 5.99 0.34 6.98 0 8 C-0.66 7.34 -1.32 6.68 -2 6 C-1.67 5.34 -1.34 4.68 -1 4 C-1.66 3.34 -2.32 2.68 -3 2 C-2.01 1.34 -1.02 0.68 0 0 Z " fill="#222222" transform="translate(280,300)"/>
<path d="M0 0 C0.66 0.33 1.32 0.66 2 1 C-1.07999946 4.67230705 -3.2482602 5.56802365 -8 6 C-7.3125 4.0625 -7.3125 4.0625 -6 2 C-3.4375 1.3125 -3.4375 1.3125 -1 1 C-0.67 0.67 -0.34 0.34 0 0 Z " fill="#303030" transform="translate(279,303)"/>
<path d="M0 0 C0 1.65 0 3.3 0 5 C-2.07553648 5.5534764 -3.84365964 6 -6 6 C-6 5.34 -6 4.68 -6 4 C-5.34 4 -4.68 4 -4 4 C-4.33 3.01 -4.66 2.02 -5 1 C-1.125 0 -1.125 0 0 0 Z " fill="#353535" transform="translate(262,278)"/>
<path d="M0 0 C0 1.65 0 3.3 0 5 C-2.4375 4.1875 -2.4375 4.1875 -5 3 C-5.33 2.01 -5.66 1.02 -6 0 C-3 -1 -3 -1 0 0 Z " fill="#313131" transform="translate(287,258)"/>
<path d="M0 0 C3.3 0 6.6 0 10 0 C6.55549263 2.29633824 4.06187717 2.54016485 0 3 C0 2.01 0 1.02 0 0 Z " fill="#313131" transform="translate(317,253)"/>
<path d="M0 0 C0 0.66 0 1.32 0 2 C-1.32 2 -2.64 2 -4 2 C-4.33 2.66 -4.66 3.32 -5 4 C-5.66 3.67 -6.32 3.34 -7 3 C-7 2.34 -7 1.68 -7 1 C-7.66 0.67 -8.32 0.34 -9 0 C-5.93109813 -1.53445094 -3.29905734 -0.54984289 0 0 Z " fill="#1F1F1F" transform="translate(114,199)"/>
<path d="M0 0 C0.33 0.99 0.66 1.98 1 3 C1.66 3 2.32 3 3 3 C3.33 2.34 3.66 1.68 4 1 C4 3.64 4 6.28 4 9 C3.34 9 2.68 9 2 9 C0.50178941 5.62902617 0 3.79557881 0 0 Z " fill="#393939" transform="translate(139,213)"/>
<path d="M0 0 C1.65 0.33 3.3 0.66 5 1 C4.67 1.66 4.34 2.32 4 3 C3.34 3 2.68 3 2 3 C2 3.66 2 4.32 2 5 C0.68 5 -0.64 5 -2 5 C-2 4.01 -2 3.02 -2 2 C-1.34 2 -0.68 2 0 2 C0 1.34 0 0.68 0 0 Z " fill="#393939" transform="translate(125,115)"/>
<path d="M0 0 C1.32 0.33 2.64 0.66 4 1 C3 4 3 4 -0.0625 5.6875 C-1.031875 6.120625 -2.00125 6.55375 -3 7 C-3 5 -3 5 -1 3 C-0.67 2.01 -0.34 1.02 0 0 Z " fill="#313131" transform="translate(167,89)"/>
<path d="M0 0 C0.66 0 1.32 0 2 0 C2 0.66 2 1.32 2 2 C2.99 1.67 3.98 1.34 5 1 C5 1.66 5 2.32 5 3 C4.34 3.66 3.68 4.32 3 5 C3 5.66 3 6.32 3 7 C2.01 7.33 1.02 7.66 0 8 C0 5.36 0 2.72 0 0 Z " fill="#383838" transform="translate(272,297)"/>
<path d="M0 0 C0.33 0.99 0.66 1.98 1 3 C3.31 3.33 5.62 3.66 8 4 C6.68 4.99 5.36 5.98 4 7 C0.9890638 4.9927092 0.36983503 4.16115776 -1 1 C-0.67 0.67 -0.34 0.34 0 0 Z " fill="#1E1E1E" transform="translate(230,289)"/>
<path d="M0 0 C0.66 0 1.32 0 2 0 C3 3 3 3 2.0625 5.1875 C1.5365625 6.0846875 1.5365625 6.0846875 1 7 C0.34 7 -0.32 7 -1 7 C-1.66666667 5.66666667 -2.33333333 4.33333333 -3 3 C-2.01 3 -1.02 3 0 3 C0 2.01 0 1.02 0 0 Z " fill="#2C2C2C" transform="translate(211,98)"/>
<path d="M0 0 C0.99 0 1.98 0 3 0 C2.814375 0.78375 2.62875 1.5675 2.4375 2.375 C1.74037734 4.97089775 1.74037734 4.97089775 3 7 C1.68 7 0.36 7 -1 7 C-0.67 4.69 -0.34 2.38 0 0 Z " fill="#353535" transform="translate(312,338)"/>
<path d="M0 0 C1.32 0 2.64 0 4 0 C3.67 1.32 3.34 2.64 3 4 C2.01 3.67 1.02 3.34 0 3 C0 3.66 0 4.32 0 5 C-0.99 5 -1.98 5 -3 5 C-1.125 1.125 -1.125 1.125 0 0 Z " fill="#383838" transform="translate(267,290)"/>
<path d="M0 0 C0.66 0 1.32 0 2 0 C2 1.98 2 3.96 2 6 C0.68 6 -0.64 6 -2 6 C-1.34 4.02 -0.68 2.04 0 0 Z " fill="#323232" transform="translate(266,265)"/>
<path d="M0 0 C-3 1.5 -3 1.5 -6 3 C-6.99 2.01 -7.98 1.02 -9 0 C-5.67465243 -1.10844919 -3.37817425 -0.84454356 0 0 Z " fill="#313131" transform="translate(326,259)"/>
<path d="M0 0 C0.99 0.33 1.98 0.66 3 1 C2.319375 1.61875 2.319375 1.61875 1.625 2.25 C-0.05950374 4.06408095 -0.99265971 5.75285627 -2 8 C-2 5.69 -2 3.38 -2 1 C-1.34 0.67 -0.68 0.34 0 0 Z " fill="#252525" transform="translate(258,283)"/>
<path d="M0 0 C0.99 0.33 1.98 0.66 3 1 C3 2.32 3 3.64 3 5 C1.35 4.67 -0.3 4.34 -2 4 C-2 3.34 -2 2.68 -2 2 C-1.34 2 -0.68 2 0 2 C0 1.34 0 0.68 0 0 Z " fill="#363636" transform="translate(178,192)"/>
<path d="M0 0 C0.99 0 1.98 0 3 0 C2.67 1.65 2.34 3.3 2 5 C1.01 5.33 0.02 5.66 -1 6 C-1 5.01 -1 4.02 -1 3 C-0.34 3 0.32 3 1 3 C0.67 2.01 0.34 1.02 0 0 Z " fill="#414141" transform="translate(120,138)"/>
<path d="M0 0 C0.33 0 0.66 0 1 0 C1 1.65 1 3.3 1 5 C-0.65 5.33 -2.3 5.66 -4 6 C-3.67 4.68 -3.34 3.36 -3 2 C-3 2.66 -3 3.32 -3 4 C-2.34 4 -1.68 4 -1 4 C-0.67 2.68 -0.34 1.36 0 0 Z " fill="#323232" transform="translate(116,136)"/>
</svg>
